<svg xmlns="http://www.w3.org/2000/svg" version="1.1" xmlns:xlink="http://www.w3.org/1999/xlink" xmlns:svgjs="http://svgjs.dev/svgjs" width="1500" height="1500" viewBox="0 0 1500 1500"><g transform="matrix(1,0,0,1,0,0)"><svg viewBox="0 0 280 280" data-background-color="#ffffff" preserveAspectRatio="xMidYMid meet" height="1500" width="1500" xmlns="http://www.w3.org/2000/svg" xmlns:xlink="http://www.w3.org/1999/xlink"><g id="tight-bounds" transform="matrix(1,0,0,1,0,0)"><svg viewBox="0 0 280 280" height="280" width="280"><g><svg viewBox="0 0 280 280" height="280" width="280"><g><svg viewBox="0 0 280 280" height="280" width="280"><g id="textblocktransform"><svg viewBox="0 0 280 280" height="280" width="280" id="textblock"><g><svg viewBox="0 0 280 280" height="280" width="280"><g transform="matrix(1,0,0,1,57.50420886156945,57.50420886156945)"><svg viewBox="0 0 164.9915822768611 164.9915822768611" height="164.9915822768611" width="164.9915822768611"><g id="icon-0"><circle r="82" cx="82.49579113843055" cy="82.49579113843055" fill="#97978d" data-fill-palette-color="accent"></circle><svg xmlns="http://www.w3.org/2000/svg" xml:space="preserve" viewBox="5.94 6.329 88.121 87.343" x="24.748737341529164" y="24.74873734152917" height="115.49410759380275" width="115.49410759380275" class="icon-jxe-0" data-fill-palette-color="quaternary" id="jxe-0"><path fill="none" d="M63.34 12.448v7.148H34.829l-4.803 4.79a2.2 2.2 0 0 0-1.043-0.267 2.23 2.23 0 0 0-2.231 2.22c0 0.375 0.097 0.739 0.278 1.042l-8.404 8.404-0.002 0.002a2.2 2.2 0 0 0-1.066-0.285 2.225 2.225 0 0 0-2.223 2.223c0 1.226 0.998 2.223 2.223 2.223s2.223-0.997 2.223-2.223c0-0.394-0.111-0.76-0.292-1.081l8.391-8.392c0.328 0.207 0.703 0.315 1.104 0.315a2.23 2.23 0 0 0 2.22-2.231c0-0.4-0.109-0.776-0.303-1.104l4.427-4.426h29.227v-8.362a2.22 2.22 0 0 0 1.615-2.127 2.225 2.225 0 0 0-2.223-2.223 2.218 2.218 0 0 0-0.607 4.354M17.557 38.737a1.011 1.011 0 0 1 0-2.021 1.011 1.011 0 0 1 0 2.021m11.425-11.379c-0.061 0-0.121 0-0.182-0.024a1.01 1.01 0 0 1-0.825-0.885c-0.012-0.037-0.012-0.073-0.012-0.109 0-0.559 0.461-1.007 1.019-1.007 0.037 0 0.061 0 0.097 0.012a0.96 0.96 0 0 1 0.885 0.825c0.025 0.06 0.025 0.109 0.025 0.17 0 0.557-0.448 1.018-1.007 1.018M63.945 9.309a1.011 1.011 0 0 1 0 2.02 1.011 1.011 0 0 1 0-2.02"></path><path fill="none" d="M11.493 12.213v20.049l15.765-15.765H57.68v-4.049a2.22 2.22 0 0 0 1.617-2.128 2.225 2.225 0 0 0-2.223-2.223 2.225 2.225 0 0 0-2.223 2.223c0 1.014 0.686 1.862 1.615 2.128v2.836h-29.71l-14.05 14.05V12.213a2.22 2.22 0 0 0 1.617-2.128A2.225 2.225 0 0 0 12.1 7.862a2.225 2.225 0 0 0-2.223 2.223 2.22 2.22 0 0 0 1.616 2.128m44.57-1.894a1.011 1.011 0 1 1 1.011 1.01 1.01 1.01 0 0 1-1.011-1.01M12.1 9.075a1.011 1.011 0 0 1 0 2.02 1.01 1.01 0 1 1 0-2.02M75.771 12.448v16.171H53.129a2.19 2.19 0 0 0-2.123-1.613 2.19 2.19 0 0 0-2.122 1.613H39.23L18.517 49.345a2 2 0 0 0-0.958-0.231 2.22 2.22 0 0 0 0 4.439c1.224 0 2.22-0.994 2.22-2.219a2.2 2.2 0 0 0-0.352-1.188L39.74 29.832h9.145a2.19 2.19 0 0 0 2.122 1.613 2.19 2.19 0 0 0 2.123-1.613h23.855V12.447A2.22 2.22 0 0 0 78.6 10.32a2.226 2.226 0 0 0-2.223-2.223 2.225 2.225 0 0 0-2.224 2.223 2.22 2.22 0 0 0 1.618 2.128M17.558 52.34a1 1 0 0 1-1.006-1.006c0-0.557 0.449-1.007 1.006-1.007 0.206 0 0.389 0.062 0.546 0.171h0.012a1 1 0 0 1 0.291 0.302 1.002 1.002 0 0 1-0.849 1.54m34.249-22.508a1 1 0 0 1-1.601 0c-0.134-0.17-0.206-0.376-0.206-0.606s0.072-0.437 0.206-0.606a1 1 0 0 1 1.601 0c0.133 0.169 0.207 0.376 0.207 0.606s-0.075 0.436-0.207 0.606m24.57-20.523a1.011 1.011 0 1 1-0.002 2.022 1.011 1.011 0 0 1 0.002-2.022M89.191 85.373a2.22 2.22 0 0 0-2.127 1.617H60.723a2.22 2.22 0 0 0-2.128-1.617c-1.226 0-2.224 0.996-2.224 2.223s0.998 2.223 2.224 2.223a2.22 2.22 0 0 0 2.128-1.617h26.342a2.216 2.216 0 0 0 2.127 1.617 2.224 2.224 0 0 0-0.001-4.446m-30.596 3.232c-0.557 0-1.011-0.453-1.011-1.01a1.012 1.012 0 0 1 2.022 0c0 0.557-0.455 1.01-1.011 1.01m30.596 0c-0.523 0-0.941-0.406-0.99-0.916v-0.188c0.049-0.51 0.467-0.916 0.99-0.916 0.557 0 1.012 0.453 1.012 1.01s-0.455 1.01-1.012 1.01"></path><path fill="none" d="M37.229 23.926L18.408 42.759a2.07 2.07 0 0 0-1.116-0.314 2.22 2.22 0 1 0 2.219 2.219c0-0.376-0.097-0.728-0.268-1.03l18.495-18.495h27.846c0.279 0.885 1.115 1.528 2.098 1.528s1.819-0.643 2.098-1.528h1.747V12.447a2.22 2.22 0 0 0 1.615-2.127c0-1.226-0.997-2.223-2.223-2.223s-2.224 0.997-2.224 2.223c0 1.014 0.688 1.863 1.618 2.129v11.478h-0.485a2.21 2.21 0 0 0-2.146-1.698 2.21 2.21 0 0 0-2.146 1.698H37.229zM17.292 45.67a1.004 1.004 0 0 1-1.007-1.007c0-0.557 0.449-1.006 1.007-1.006s1.006 0.449 1.006 1.006c0 0.559-0.448 1.007-1.006 1.007m52.616-35.351a1.012 1.012 0 0 1 2.022 0 1.012 1.012 0 0 1-2.022 0M66.82 23.926c0.17-0.292 0.498-0.485 0.861-0.485s0.691 0.194 0.861 0.485a0.96 0.96 0 0 1 0.146 0.521c0 0.267-0.108 0.509-0.267 0.691-0.193 0.194-0.449 0.315-0.74 0.315s-0.545-0.121-0.74-0.315a1.07 1.07 0 0 1-0.266-0.691 1 1 0 0 1 0.145-0.521M20.565 77.287a2.19 2.19 0 0 0 2.122 1.613c1.02 0 1.868-0.68 2.123-1.613h15.38a2.22 2.22 0 0 0 2.128 1.617 2.226 2.226 0 0 0 2.223-2.223 2.226 2.226 0 0 0-2.223-2.225 2.22 2.22 0 0 0-2.128 1.617H24.81a2.19 2.19 0 0 0-2.123-1.613c-1.019 0-1.866 0.68-2.122 1.613h-9.071v7.482h32.49l6.27-6.27h22.605a2.22 2.22 0 0 0 2.127 1.617 2.227 2.227 0 0 0 2.225-2.223 2.227 2.227 0 0 0-2.225-2.225 2.22 2.22 0 0 0-2.127 1.617H49.745l-6.258 6.27h-30.78v-5.057h7.858z m21.753-1.617a1.012 1.012 0 0 1 0 2.022 1.012 1.012 0 0 1 0-2.022m-20.43 0.404a1 1 0 0 1 1.6 0c0.134 0.17 0.206 0.377 0.206 0.607a0.96 0.96 0 0 1-0.206 0.605 1 1 0 0 1-1.6 0 0.96 0.96 0 0 1-0.206-0.605c0-0.23 0.072-0.437 0.206-0.607m52.161 0.25c0.146-0.381 0.508-0.654 0.938-0.654 0.557 0 1.012 0.455 1.012 1.012s-0.455 1.01-1.012 1.01c-0.43 0-0.791-0.273-0.938-0.654z"></path><path fill="none" d="M62.527 46.871h-3.262c-0.146-1.08-1.08-1.904-2.195-1.904s-2.037 0.824-2.183 1.904h-11.51L21.451 68.799h-8.744V43.415a2.19 2.19 0 0 0 1.613-2.122c0-1.225-0.995-2.231-2.219-2.231s-2.22 1.007-2.22 2.231a2.19 2.19 0 0 0 1.613 2.122V70.01h10.454l21.927-21.926h11.169c0.34 0.789 1.115 1.334 2.025 1.334s1.686-0.545 2.025-1.334h2.219v5.76h-6.912a2.24 2.24 0 0 0-2.184-1.77 2.22 2.22 0 0 0-2.219 2.219c0 0.861 0.497 1.613 1.213 1.965v16.178H30.244l14.093-14.104v8.604A2.22 2.22 0 0 0 42.925 69c0 1.227 0.998 2.223 2.223 2.223A2.225 2.225 0 0 0 47.371 69a2.224 2.224 0 0 0-1.822-2.182v-11.41l-18.24 18.24h25.117V56.5a2.18 2.18 0 0 0 1.879-1.443h8.223z m-51.433-5.579c0-0.559 0.449-1.019 1.007-1.019s1.006 0.46 1.006 1.019-0.449 1.006-1.006 1.006a1.004 1.004 0 0 1-1.007-1.006m46.449 6.791c-0.146 0.073-0.303 0.121-0.473 0.121s-0.328-0.035-0.461-0.121a0.99 0.99 0 0 1-0.546-0.897c0-0.109 0.013-0.218 0.061-0.315 0.122-0.4 0.497-0.691 0.946-0.691s0.824 0.291 0.958 0.691a0.9 0.9 0 0 1 0.061 0.315c0 0.389-0.218 0.728-0.546 0.897M45.147 67.99a1.011 1.011 0 0 1 0 2.02 1.01 1.01 0 0 1 0-2.02m7.74-12.933a1 1 0 0 1-0.461 0.23 1 1 0 0 1-0.207 0.025 1.015 1.015 0 0 1-1.006-1.02 0.84 0.84 0 0 1 0.121-0.449c0.145-0.326 0.484-0.557 0.885-0.557s0.74 0.23 0.91 0.557a0.95 0.95 0 0 1 0.109 0.449c0 0.304-0.134 0.571-0.351 0.765"></path><path fill="none" d="M75.553 47.029a2.222 2.222 0 0 0 3.045-2.063c0-1.019-0.68-1.867-1.613-2.121v-6.149H40.346L27.321 49.708a2.2 2.2 0 0 0-1.091-0.291 2.23 2.23 0 0 0-2.232 2.219c0 0.4 0.11 0.766 0.303 1.092l-5.518 5.518-0.004 0.006a2.2 2.2 0 0 0-1.221-0.369 2.226 2.226 0 0 0-2.223 2.223c0 1.227 0.998 2.223 2.223 2.223s2.223-0.996 2.223-2.223c0-0.332-0.078-0.643-0.208-0.924l5.603-5.604q0.473 0.275 1.055 0.277a2.22 2.22 0 0 0 2.218-2.219c0-0.375-0.096-0.739-0.278-1.054l12.674-12.674h34.928v4.937a2.186 2.186 0 0 0-1.613 2.121c0 0.485 0.158 0.946 0.438 1.311l-8.284 8.284-0.007 0.006a2.2 2.2 0 0 0-1.041-0.27 2.224 2.224 0 1 0 2.223 2.223 2.2 2.2 0 0 0-0.307-1.107l0.005-0.004zM17.557 61.117a1.011 1.011 0 0 1 0-2.022 1.012 1.012 0 0 1 0 2.022m8.673-8.474c-0.037 0-0.073 0-0.11-0.012a0.98 0.98 0 0 1-0.885-0.824c-0.025-0.061-0.025-0.107-0.025-0.17 0-0.557 0.462-1.006 1.02-1.006 0.049 0 0.109 0 0.158 0.024 0.449 0.061 0.8 0.425 0.836 0.873 0.012 0.037 0.012 0.074 0.012 0.109a1.004 1.004 0 0 1-1.006 1.006m49.541-8.477c0.168-0.132 0.375-0.206 0.605-0.206s0.438 0.074 0.607 0.206c0.242 0.183 0.4 0.475 0.4 0.801 0 0.462-0.316 0.85-0.74 0.972a1 1 0 0 1-0.268 0.035 0.98 0.98 0 0 1-0.896-0.581 0.86 0.86 0 0 1-0.109-0.426 1 1 0 0 1 0.401-0.801M65.264 57.529a1.011 1.011 0 0 1 0-2.02c0.185 0 0.348 0.063 0.496 0.148l0.363 0.363c0.087 0.148 0.15 0.313 0.15 0.498 0 0.558-0.453 1.011-1.009 1.011"></path><path fill="none" d="M89.191 69a2.22 2.22 0 0 0-2.127 1.617h-26.55v-9.096h7.52l13.268-13.267c0.242 0.097 0.498 0.145 0.777 0.145a2.23 2.23 0 0 0 2.23-2.22c0-0.995-0.654-1.843-1.564-2.11v-15.62a2.19 2.19 0 0 0 1.564-2.11c0-0.995-0.654-1.832-1.564-2.111V12.487a2.22 2.22 0 0 0 1.742-2.167c0-1.226-0.996-2.223-2.223-2.223s-2.223 0.997-2.223 2.223c0 0.968 0.625 1.785 1.49 2.089v11.784a2.226 2.226 0 0 0-1.674 2.147c0 1.03 0.717 1.916 1.674 2.146v15.548a2.21 2.21 0 0 0-1.674 2.146c0 0.51 0.17 0.972 0.461 1.347L67.536 60.309h-8.234V71.83H77.59v10.006H54.9l-3.833 3.832a2 2 0 0 0-1.066-0.291c-1.019 0-1.868 0.68-2.123 1.613H12.97a2.22 2.22 0 0 0-2.128-1.617c-1.226 0-2.223 0.996-2.223 2.223s0.997 2.223 2.223 2.223a2.22 2.22 0 0 0 2.128-1.617h34.907A2.19 2.19 0 0 0 50 89.815a2.22 2.22 0 0 0 2.219-2.219c0-0.389-0.097-0.752-0.291-1.066l3.48-3.482h23.395V71.83h8.262a2.216 2.216 0 0 0 2.127 1.617 2.226 2.226 0 0 0 2.223-2.225A2.227 2.227 0 0 0 89.191 69m-7.937-58.681a1.011 1.011 0 0 1 2.02 0 1.011 1.011 0 0 1-2.02 0m-0.184 16.02c0-0.352 0.182-0.667 0.461-0.849a1.01 1.01 0 0 1 1.213 0.097c0.219 0.182 0.352 0.449 0.352 0.752s-0.133 0.569-0.352 0.764a1.01 1.01 0 0 1-1.213 0.097 1.05 1.05 0 0 1-0.461-0.861m0.461 18.993a0.97 0.97 0 0 1 0.547-0.171c0.254 0 0.484 0.098 0.666 0.256 0.219 0.193 0.352 0.46 0.352 0.763a1.01 1.01 0 0 1-1.018 1.007 1.02 1.02 0 0 1-0.887-0.533 1.1 1.1 0 0 1-0.121-0.474c0-0.351 0.182-0.668 0.461-0.848M10.842 88.605a1.011 1.011 0 0 1 0-2.02c0.556 0 1.01 0.453 1.01 1.01s-0.454 1.01-1.01 1.01M50 88.602a1 1 0 0 1-0.801-0.4c-0.134-0.17-0.206-0.375-0.206-0.605s0.072-0.436 0.206-0.605a1 1 0 0 1 0.935-0.388c0.448 0.061 0.799 0.412 0.861 0.861 0.011 0.047 0.011 0.084 0.011 0.133 0 0.556-0.448 1.004-1.006 1.004m39.191-16.368c-0.521 0-0.938-0.404-0.99-0.912v-0.199c0.053-0.508 0.469-0.91 0.99-0.91 0.557 0 1.012 0.453 1.012 1.01s-0.455 1.011-1.012 1.011"></path><path fill="none" d="M87.365 12.447v36.559a2.19 2.19 0 0 0-1.613 2.122c0 0.389 0.096 0.766 0.291 1.08L72.787 65.463h-7.618a2.22 2.22 0 0 0-2.128-1.617 2.226 2.226 0 0 0-2.224 2.223c0 1.227 0.997 2.225 2.224 2.225a2.22 2.22 0 0 0 2.128-1.617h8.128l13.607-13.621c0.316 0.195 0.68 0.293 1.066 0.293a2.22 2.22 0 0 0 2.219-2.221 2.19 2.19 0 0 0-1.611-2.122V12.448a2.22 2.22 0 0 0 1.619-2.129 2.226 2.226 0 0 0-2.225-2.223 2.226 2.226 0 0 0-2.223 2.223 2.22 2.22 0 0 0 1.616 2.128M63.947 66.498a1.01 1.01 0 0 1-0.906 0.582 1.012 1.012 0 0 1 0-2.022c0.4 0 0.743 0.24 0.906 0.582z m25.032-15.371c0 0.559-0.449 1.008-1.008 1.008-0.049 0-0.084 0-0.133-0.012a0.99 0.99 0 0 1-0.861-0.85c-0.012-0.049-0.012-0.096-0.012-0.146a1 1 0 0 1 0.4-0.8c0.17-0.133 0.375-0.206 0.605-0.206s0.438 0.073 0.607 0.206a1 1 0 0 1 0.402 0.8M87.973 9.309c0.557 0 1.012 0.453 1.012 1.01s-0.455 1.01-1.012 1.01a1.011 1.011 0 0 1 0-2.02"></path><path fill="none" d="M90.424 57.277a2.227 2.227 0 0 0-2.223-2.223 2.225 2.225 0 0 0-2.223 2.223c0 1.014 0.686 1.861 1.615 2.129v4.838a2.22 2.22 0 0 0-1.615 2.129c0 1.225 0.996 2.223 2.223 2.223a2.227 2.227 0 0 0 2.223-2.223 2.22 2.22 0 0 0-1.617-2.129v-4.838a2.22 2.22 0 0 0 1.617-2.129m-1.213 9.096a1.011 1.011 0 0 1-2.02 0c0-0.406 0.242-0.75 0.586-0.91h0.848c0.344 0.16 0.586 0.504 0.586 0.91m-1.01-8.086a1.011 1.011 0 0 1 0-2.02 1.011 1.011 0 0 1 0 2.02"></path><path d="M65.76 55.658a1 1 0 0 0-0.496-0.148 1.011 1.011 0 0 0 0 2.02c0.557 0 1.01-0.453 1.01-1.01a1 1 0 0 0-0.15-0.498z" fill="#ffffff" data-fill-palette-color="quaternary"></path><circle cx="42.318" cy="76.681" r="1.0" fill="#ffffff" data-fill-palette-color="quaternary"></circle><path d="M76.377 45.973a1 1 0 0 0 0.268-0.035c0.424-0.122 0.74-0.51 0.74-0.972 0-0.326-0.158-0.618-0.4-0.801-0.17-0.132-0.377-0.206-0.607-0.206s-0.438 0.074-0.605 0.206a1 1 0 0 0-0.4 0.801c0 0.159 0.037 0.292 0.109 0.426 0.143 0.34 0.495 0.581 0.895 0.581M22.688 77.688a1 1 0 0 0 0.801-0.4 0.96 0.96 0 0 0 0.206-0.605 0.96 0.96 0 0 0-0.206-0.607 1 1 0 0 0-1.6 0 0.96 0.96 0 0 0-0.206 0.607c0 0.229 0.072 0.436 0.206 0.605 0.18 0.241 0.472 0.4 0.799 0.4M52.219 53.287c-0.4 0-0.74 0.23-0.885 0.557a0.84 0.84 0 0 0-0.121 0.449c0 0.559 0.449 1.02 1.006 1.02 0.072 0 0.135-0.012 0.207-0.025a1.026 1.026 0 0 0 0.813-0.994 0.95 0.95 0 0 0-0.109-0.449 1.03 1.03 0 0 0-0.911-0.558M57.07 46.179a0.98 0.98 0 0 0-0.946 0.691 0.7 0.7 0 0 0-0.061 0.315c0 0.389 0.218 0.74 0.546 0.897 0.133 0.086 0.291 0.121 0.461 0.121s0.326-0.048 0.473-0.121c0.328-0.17 0.546-0.509 0.546-0.897a0.9 0.9 0 0 0-0.061-0.315 1.01 1.01 0 0 0-0.958-0.691M74.986 77.691c0.557 0 1.012-0.453 1.012-1.01s-0.455-1.012-1.012-1.012c-0.43 0-0.791 0.273-0.938 0.654v0.713c0.147 0.382 0.509 0.655 0.938 0.655M13.107 41.292c0-0.559-0.449-1.019-1.006-1.019-0.558 0-1.007 0.46-1.007 1.019s0.449 1.006 1.007 1.006 1.006-0.448 1.006-1.006M26.388 50.655c-0.049-0.024-0.109-0.024-0.158-0.024-0.558 0-1.02 0.45-1.02 1.006 0 0.063 0 0.109 0.025 0.17 0.06 0.436 0.437 0.789 0.885 0.824 0.037 0.012 0.073 0.012 0.11 0.012 0.558 0 1.005-0.447 1.005-1.006 0-0.035 0-0.072-0.012-0.109a0.965 0.965 0 0 0-0.835-0.873" fill="#ffffff" data-fill-palette-color="quaternary"></path><circle cx="45.147" cy="69" r="1.0" fill="#ffffff" data-fill-palette-color="quaternary"></circle><circle cx="17.557" cy="60.106" r="1.0" fill="#ffffff" data-fill-palette-color="quaternary"></circle><path d="M63.041 65.059a1.012 1.012 0 0 0 0 2.022c0.4 0 0.743-0.24 0.906-0.582v-0.857a1.01 1.01 0 0 0-0.906-0.583" fill="#ffffff" data-fill-palette-color="quaternary"></path><circle cx="58.595" cy="87.596" r="1.0" fill="#ffffff" data-fill-palette-color="quaternary"></circle><path d="M87.777 65.463c-0.344 0.16-0.586 0.504-0.586 0.91a1.011 1.011 0 0 0 2.02 0c0-0.406-0.242-0.75-0.586-0.91z" fill="#ffffff" data-fill-palette-color="quaternary"></path><circle cx="88.201" cy="57.277" r="1.0" fill="#ffffff" data-fill-palette-color="quaternary"></circle><path d="M87.971 50.121a0.96 0.96 0 0 0-0.605 0.206 1.003 1.003 0 0 0 0.473 1.796c0.049 0.012 0.084 0.012 0.133 0.012a1.005 1.005 0 0 0 0.608-1.808 0.98 0.98 0 0 0-0.609-0.206M89.191 86.586c-0.523 0-0.941 0.406-0.99 0.916v0.188c0.049 0.51 0.467 0.916 0.99 0.916 0.557 0 1.012-0.453 1.012-1.01s-0.455-1.01-1.012-1.01M51.006 28.219a1 1 0 0 0-0.8 0.4c-0.134 0.17-0.206 0.376-0.206 0.607s0.072 0.437 0.206 0.606a1 1 0 0 0 1.601 0c0.133-0.17 0.207-0.376 0.207-0.606s-0.074-0.437-0.207-0.606a1 1 0 0 0-0.801-0.401M18.396 50.777a1 1 0 0 0-0.279-0.279h-0.012a0.94 0.94 0 0 0-0.546-0.171c-0.558 0-1.006 0.45-1.006 1.007 0 0.559 0.449 1.006 1.006 1.006a1.003 1.003 0 0 0 0.837-1.563" fill="#ffffff" data-fill-palette-color="quaternary"></path><circle cx="87.973" cy="10.319" r="1.0" fill="#ffffff" data-fill-palette-color="quaternary"></circle><circle cx="76.377" cy="10.319" r="1.0" fill="#ffffff" data-fill-palette-color="quaternary"></circle><circle cx="57.074" cy="10.319" r="1.0" fill="#ffffff" data-fill-palette-color="quaternary"></circle><path d="M82.078 27.358c0.254 0 0.484-0.097 0.666-0.255 0.219-0.194 0.352-0.46 0.352-0.764s-0.133-0.57-0.352-0.752a1.01 1.01 0 0 0-1.213-0.097 1.01 1.01 0 0 0-0.461 0.849c0 0.351 0.182 0.667 0.461 0.861 0.158 0.097 0.352 0.158 0.547 0.158M82.078 47.186a1.013 1.013 0 0 0 1.018-1.007c0-0.303-0.133-0.569-0.352-0.763a1 1 0 0 0-0.666-0.256 0.97 0.97 0 0 0-0.547 0.171 1.01 1.01 0 0 0-0.461 0.848c0 0.171 0.049 0.328 0.121 0.474 0.172 0.315 0.51 0.533 0.887 0.533M89.191 70.213c-0.521 0-0.938 0.402-0.99 0.91v0.199c0.053 0.508 0.469 0.912 0.99 0.912 0.557 0 1.012-0.455 1.012-1.012s-0.455-1.009-1.012-1.009" fill="#ffffff" data-fill-palette-color="quaternary"></path><circle cx="12.1" cy="10.085" r="1.0" fill="#ffffff" data-fill-palette-color="quaternary"></circle><circle cx="82.264" cy="10.319" r="1.0" fill="#ffffff" data-fill-palette-color="quaternary"></circle><path d="M50.134 86.602c-0.049-0.012-0.086-0.012-0.134-0.012a1 1 0 0 0-0.801 0.4c-0.134 0.17-0.206 0.375-0.206 0.605s0.072 0.436 0.206 0.605c0.182 0.244 0.473 0.4 0.801 0.4 0.558 0 1.006-0.447 1.006-1.006 0-0.049 0-0.086-0.011-0.133a1.005 1.005 0 0 0-0.861-0.859" fill="#ffffff" data-fill-palette-color="quaternary"></path><circle cx="10.842" cy="87.596" r="1.0" fill="#ffffff" data-fill-palette-color="quaternary"></circle><path d="M67.682 25.453c0.291 0 0.547-0.121 0.74-0.315a1.06 1.06 0 0 0 0.267-0.691 0.96 0.96 0 0 0-0.146-0.521c-0.17-0.292-0.498-0.485-0.861-0.485s-0.691 0.194-0.861 0.485a0.96 0.96 0 0 0-0.145 0.521c0 0.267 0.108 0.509 0.266 0.691 0.195 0.195 0.449 0.315 0.74 0.315M29.08 25.344c-0.037-0.012-0.061-0.012-0.097-0.012-0.558 0-1.019 0.448-1.019 1.007 0 0.036 0 0.072 0.012 0.109 0.049 0.449 0.389 0.813 0.825 0.885 0.062 0.024 0.122 0.024 0.182 0.024 0.558 0 1.007-0.461 1.007-1.019 0-0.061 0-0.11-0.025-0.17a0.96 0.96 0 0 0-0.885-0.824" fill="#ffffff" data-fill-palette-color="quaternary"></path><circle cx="17.557" cy="37.727" r="1.0" fill="#ffffff" data-fill-palette-color="quaternary"></circle><circle cx="63.945" cy="10.319" r="1.0" fill="#ffffff" data-fill-palette-color="quaternary"></circle><circle cx="70.919" cy="10.319" r="1.0" fill="#ffffff" data-fill-palette-color="quaternary"></circle><path d="M17.292 43.658c-0.558 0-1.007 0.449-1.007 1.006 0 0.559 0.449 1.007 1.007 1.007s1.006-0.448 1.006-1.007c0-0.557-0.448-1.006-1.006-1.006" fill="#ffffff" data-fill-palette-color="quaternary"></path><path d="M5.94 6.329v87.343h88.121V6.329z m84.484 60.044a2.227 2.227 0 0 1-2.223 2.223 2.225 2.225 0 0 1-2.223-2.223 2.22 2.22 0 0 1 1.615-2.129v-4.838a2.22 2.22 0 0 1-1.615-2.129c0-1.225 0.996-2.223 2.223-2.223 1.225 0 2.223 0.998 2.223 2.223a2.224 2.224 0 0 1-1.617 2.129v4.838a2.22 2.22 0 0 1 1.617 2.129M87.973 8.096c1.227 0 2.225 0.997 2.225 2.223a2.22 2.22 0 0 1-1.619 2.129v36.557a2.19 2.19 0 0 1 1.611 2.122 2.22 2.22 0 0 1-2.219 2.221c-0.387 0-0.75-0.098-1.066-0.293L73.297 66.676h-8.128a2.22 2.22 0 0 1-2.128 1.617 2.226 2.226 0 0 1-2.224-2.225c0-1.225 0.997-2.223 2.224-2.223a2.22 2.22 0 0 1 2.128 1.617h7.618l13.256-13.256a2.05 2.05 0 0 1-0.291-1.08c0-1.018 0.68-1.866 1.613-2.122V12.447a2.22 2.22 0 0 1-1.615-2.127c0-1.227 0.998-2.224 2.223-2.224m-11.596 0c1.225 0 2.223 0.997 2.223 2.223a2.22 2.22 0 0 1-1.615 2.127v17.385H53.129a2.19 2.19 0 0 1-2.123 1.613 2.19 2.19 0 0 1-2.122-1.613H39.74L19.426 50.146c0.218 0.34 0.352 0.752 0.352 1.188a2.22 2.22 0 0 1-4.439 0c0-1.225 0.995-2.22 2.219-2.22 0.34 0 0.667 0.074 0.958 0.231L39.23 28.619h9.654a2.19 2.19 0 0 1 2.122-1.613 2.19 2.19 0 0 1 2.123 1.613h22.643V12.448a2.22 2.22 0 0 1-1.618-2.129 2.224 2.224 0 0 1 2.223-2.223M67.486 56.52a2.224 2.224 0 1 1-2.223-2.223c0.378 0 0.729 0.104 1.041 0.27l0.007-0.006 8.284-8.284a2.16 2.16 0 0 1-0.438-1.311c0-1.019 0.678-1.867 1.613-2.121v-4.937H40.844L28.17 50.583c0.183 0.315 0.278 0.679 0.278 1.054a2.22 2.22 0 0 1-2.218 2.219c-0.388 0-0.74-0.096-1.055-0.277l-5.603 5.604c0.13 0.281 0.208 0.592 0.208 0.924 0 1.227-0.998 2.223-2.223 2.223s-2.223-0.996-2.223-2.223c0-1.225 0.998-2.223 2.223-2.223 0.451 0 0.869 0.137 1.221 0.369l0.004-0.006 5.518-5.518a2.1 2.1 0 0 1-0.303-1.092 2.23 2.23 0 0 1 2.232-2.219c0.399 0 0.764 0.108 1.091 0.291l13.025-13.013h36.638v6.149a2.19 2.19 0 0 1 1.613 2.121 2.222 2.222 0 0 1-3.045 2.063l-8.368 8.379-0.005 0.004c0.193 0.328 0.308 0.703 0.308 1.108M43.487 82.344l6.258-6.27h23.114a2.22 2.22 0 0 1 2.127-1.617c1.227 0 2.225 0.998 2.225 2.225a2.227 2.227 0 0 1-2.225 2.223 2.22 2.22 0 0 1-2.127-1.617H50.254l-6.27 6.27h-32.49v-7.482h9.071a2.19 2.19 0 0 1 2.122-1.613c1.02 0 1.868 0.68 2.123 1.613h15.38a2.22 2.22 0 0 1 2.128-1.617c1.226 0 2.223 0.998 2.223 2.225a2.226 2.226 0 0 1-2.223 2.223 2.22 2.22 0 0 1-2.128-1.617H24.81a2.19 2.19 0 0 1-2.123 1.613 2.19 2.19 0 0 1-2.122-1.613h-7.858v5.057h30.78zM52.426 56.5v17.148H27.309l18.24-18.24v11.41A2.22 2.22 0 0 1 47.371 69a2.225 2.225 0 0 1-2.223 2.223A2.225 2.225 0 0 1 42.925 69c0-0.939 0.588-1.74 1.412-2.064v-8.604L30.244 72.436h20.969V56.258A2.19 2.19 0 0 1 50 54.293a2.22 2.22 0 0 1 2.219-2.219c1.067 0 1.977 0.764 2.184 1.77h6.912v-5.76h-2.219c-0.34 0.789-1.115 1.334-2.025 1.334s-1.686-0.545-2.025-1.334H43.875L21.949 70.01H11.495V43.415a2.19 2.19 0 0 1-1.613-2.122c0-1.225 0.995-2.231 2.22-2.231s2.219 1.007 2.219 2.231a2.19 2.19 0 0 1-1.613 2.122v25.384h8.744l21.927-21.928h11.51c0.146-1.08 1.067-1.904 2.183-1.904s2.049 0.824 2.195 1.904h3.262v8.186h-8.223a2.19 2.19 0 0 1-1.88 1.443m15.256-34.272a2.21 2.21 0 0 1 2.146 1.698h0.485V12.448a2.22 2.22 0 0 1-1.618-2.129c0-1.226 0.998-2.223 2.224-2.223s2.223 0.997 2.223 2.223a2.22 2.22 0 0 1-1.615 2.127v12.691H69.78c-0.278 0.885-1.115 1.528-2.098 1.528s-1.818-0.643-2.098-1.528H37.738L19.244 43.633c0.17 0.303 0.268 0.654 0.268 1.03a2.22 2.22 0 1 1-2.219-2.219c0.412 0 0.788 0.108 1.116 0.314L37.23 23.925h28.306a2.21 2.21 0 0 1 2.146-1.697M63.945 8.096c1.227 0 2.223 0.997 2.223 2.223a2.22 2.22 0 0 1-1.615 2.127v8.362H35.326l-4.427 4.426c0.194 0.328 0.303 0.704 0.303 1.104a2.23 2.23 0 0 1-2.22 2.231c-0.4 0-0.776-0.109-1.104-0.315l-8.391 8.392c0.181 0.321 0.292 0.687 0.292 1.081 0 1.226-0.998 2.223-2.223 2.223s-2.223-0.997-2.223-2.223 0.998-2.223 2.223-2.223c0.389 0 0.749 0.109 1.066 0.285l0.002-0.002 8.404-8.404a2.04 2.04 0 0 1-0.278-1.042 2.23 2.23 0 0 1 2.231-2.22c0.375 0 0.727 0.097 1.043 0.267l4.803-4.79H63.34V12.45a2.22 2.22 0 0 1-1.617-2.129c0-1.228 0.997-2.225 2.222-2.225M12.1 7.862c1.226 0 2.223 0.997 2.223 2.223a2.22 2.22 0 0 1-1.617 2.128v17.121l14.05-14.05h29.711v-2.836a2.22 2.22 0 0 1-1.615-2.128c0-1.226 0.996-2.223 2.223-2.223s2.223 0.997 2.223 2.223a2.22 2.22 0 0 1-1.617 2.128v4.049H27.258L11.493 32.262V12.213a2.22 2.22 0 0 1-1.617-2.128c0-1.226 0.998-2.223 2.224-2.223m77.091 81.956a2.22 2.22 0 0 1-2.127-1.617H60.723a2.22 2.22 0 0 1-2.128 1.617c-1.226 0-2.224-0.996-2.224-2.223s0.998-2.223 2.224-2.223a2.22 2.22 0 0 1 2.128 1.617h26.342a2.216 2.216 0 0 1 2.127-1.617 2.224 2.224 0 0 1-0.001 4.446m0-16.371a2.22 2.22 0 0 1-2.127-1.617h-8.262v11.217H55.408l-3.48 3.482c0.194 0.314 0.291 0.678 0.291 1.066A2.22 2.22 0 0 1 50 89.814a2.19 2.19 0 0 1-2.123-1.613H12.97a2.22 2.22 0 0 1-2.128 1.617c-1.226 0-2.223-0.996-2.223-2.223s0.997-2.223 2.223-2.223a2.22 2.22 0 0 1 2.128 1.617h34.907A2.19 2.19 0 0 1 50 85.376a2 2 0 0 1 1.066 0.291l3.833-3.832h22.69V71.83H59.302V60.309h8.234l12.782-12.783a2.18 2.18 0 0 1-0.461-1.347c0-1.03 0.717-1.916 1.674-2.146V28.485a2.214 2.214 0 0 1-1.674-2.146c0-1.031 0.717-1.904 1.674-2.147V12.408a2.22 2.22 0 0 1-1.49-2.089c0-1.226 0.996-2.223 2.223-2.223s2.223 0.997 2.223 2.223a2.22 2.22 0 0 1-1.742 2.167v11.742a2.205 2.205 0 0 1 1.564 2.111c0 0.994-0.654 1.843-1.564 2.11v15.62a2.19 2.19 0 0 1 1.564 2.11 2.23 2.23 0 0 1-2.23 2.22c-0.279 0-0.535-0.048-0.777-0.145L68.033 61.521h-7.52v9.096h26.551A2.22 2.22 0 0 1 89.191 69c1.227 0 2.223 0.998 2.223 2.223a2.225 2.225 0 0 1-2.223 2.224" fill="#ffffff" data-fill-palette-color="quaternary"></path></svg></g></svg></g><g id="text-0"><path d="M5.84 74.397v0c0.78 2.039 2.434 4.751 4.961 8.136 2.533 3.387 4.755 6.144 6.664 8.271 1.907 2.134 3.499 3.859 4.777 5.175v0c1.824 1.84 2.638 3.013 2.442 3.519v0c-0.13 0.335-0.656 0.324-1.578-0.033v0c-0.676-0.262-1.433-0.711-2.27-1.348-0.843-0.639-1.51-1.224-2.001-1.756v0l-0.762-0.764c-1.215-1.292-2.663-2.263-4.345-2.914v0c-2.288-0.886-4.451-1.073-6.487-0.561v0c3.495 3.701 6.731 7.516 9.708 11.445v0c0.289 0.381 0.595 0.801 0.918 1.261 0.327 0.468 0.734 1.088 1.221 1.857 0.487 0.77 0.858 1.481 1.115 2.133 0.254 0.658 0.316 1.155 0.186 1.49v0c-0.073 0.19-0.227 0.239-0.461 0.148v0l-0.26-0.144c-0.771-0.393-2.906-2.743-6.406-7.049v0l-8.283-10.087c-0.814 0.601-1.412 1.394-1.794 2.379v0c-0.374 0.967-0.376 1.842-0.003 2.627 0.379 0.786 1.061 1.37 2.047 1.752v0c0.417 0.162 0.835 0.265 1.253 0.311v0c0.214 0.01 0.375 0.036 0.483 0.077v0c0.19 0.073 0.256 0.183 0.2 0.329v0c-0.14 0.36-0.751 0.596-1.833 0.707-1.083 0.111-1.94 0.045-2.572-0.2v0c-0.885-0.343-1.454-0.919-1.707-1.729-0.253-0.81-0.18-1.731 0.219-2.761v0c0.685-1.77 1.744-3.162 3.176-4.178v0l-4.309-5.256c-0.128-0.289-0.167-0.497-0.119-0.623v0c0.081-0.209 0.311-0.239 0.69-0.093v0c1.112 0.431 3.054 2.062 5.824 4.894v0c2.48-0.849 5.253-0.68 8.319 0.507v0c0.232 0.039 0.36 0.027 0.385-0.037 0.024-0.063-0.036-0.159-0.183-0.288v0c-1.801-2.144-3.443-4.023-4.926-5.637v0c-1.986-2.172-3.468-4.287-4.444-6.344-0.983-2.06-1.186-3.835-0.608-5.327v0c0.122-0.316 0.247-0.45 0.373-0.4v0c0.063 0.024 0.193 0.195 0.39 0.511z" fill="#6b7280" data-fill-palette-color="primary"></path><path d="M91.357 16.207v0c0.055-0.622 0.005-1.136-0.148-1.542v0c-0.127-0.336-0.295-0.464-0.504-0.385v0c-0.127 0.048-0.255 0.14-0.385 0.276-0.132 0.13-0.223 0.254-0.272 0.374v0l-0.115 0.185c-0.437 0.818-0.859 2.165-1.264 4.043-0.414 1.874-0.541 3.024-0.38 3.449v0c0.031 0.082 0.069 0.115 0.113 0.098v0c0.127-0.048 0.366-0.258 0.718-0.63 0.352-0.372 0.786-1.102 1.303-2.188 0.517-1.087 0.828-2.313 0.934-3.68zM92.677 23.98v0c0.725-1.455 1.68-3.769 2.864-6.942v0c0.042-0.081 0.085-0.13 0.129-0.147 0.044-0.017 0.082 0.016 0.114 0.098v0c0.151 0.399 0.14 0.849-0.033 1.35v0c-0.905 2.321-1.742 4.285-2.51 5.895v0c-0.552 1.223-1.283 2.471-2.193 3.742-0.917 1.274-1.778 2.064-2.583 2.368v0c-0.97 0.367-1.71-0.125-2.221-1.475v0c-0.844-2.232-0.901-4.884-0.172-7.956 0.729-3.073 2.018-5.452 3.866-7.137v0c0.763-0.723 1.512-1.224 2.247-1.502v0c0.824-0.312 1.36-0.141 1.607 0.512v0c0.463 1.224 0.128 2.955-1.003 5.195-1.127 2.231-2.613 4.166-4.457 5.805v0c-0.075 0.05-0.121 0.151-0.136 0.301v0c0.009 0.982 0.142 1.812 0.399 2.491v0c0.285 0.754 0.713 1.024 1.284 0.808v0c0.907-0.343 1.839-1.478 2.798-3.406z" fill="#6b7280" data-fill-palette-color="primary"></path><path d="M193.188 30.817v0c-0.867 0.796-1.864 1.328-2.992 1.594-1.125 0.275-2.087 0.359-2.886 0.253-0.79-0.109-1.456-0.303-1.998-0.582v0c-1.465-0.753-1.904-1.7-1.318-2.839v0c0.598-1.163 1.781-1.885 3.549-2.165v0c0.829-0.13 1.63-0.087 2.404 0.128v0c0.102 0.053 0.132 0.121 0.088 0.206v0c-0.019 0.036-0.06 0.064-0.124 0.084v0c-0.696 0.122-1.476 0.468-2.34 1.038-0.864 0.569-1.452 1.155-1.761 1.757-0.31 0.603-0.212 1.034 0.294 1.295v0c0.398 0.205 0.878 0.242 1.44 0.112 0.562-0.13 1.031-0.316 1.407-0.557v0l0.545-0.325c0.732-0.431 1.596-1.279 2.589-2.544 0.994-1.265 1.807-2.416 2.441-3.455v0l0.927-1.581c0.084-0.163 0.095-0.26 0.035-0.291v0l-0.15 0.003-4.778 1.955c-0.35 0.148-0.568 0.2-0.652 0.156v0c-0.096-0.05-0.109-0.144-0.038-0.282v0c0.133-0.259 0.307-0.425 0.519-0.499v0l0.439-0.186c3.605-1.392 5.707-2.278 6.306-2.656v0c0.537-0.303 1.186-0.476 1.947-0.518v0c0.725-0.031 1.467 0.149 2.226 0.539v0c0.199 0.102 0.256 0.235 0.173 0.398v0c-0.05 0.096-0.174 0.147-0.374 0.15v0c-0.07-0.013-0.168-0.006-0.296 0.019-0.125 0.02-0.368 0.1-0.73 0.242-0.371 0.144-0.734 0.339-1.089 0.583-0.352 0.254-0.756 0.648-1.214 1.182-0.455 0.543-0.873 1.186-1.255 1.927v0c-1.184 2.302-2.296 3.922-3.334 4.859z" fill="#6b7280" data-fill-palette-color="primary"></path><path d="M255.324 107.452v0c1.144 0.692 2.766 1.586 4.865 2.681v0c0.075 0.051 0.118 0.097 0.128 0.137 0.011 0.046-0.026 0.08-0.112 0.1v0c-0.415 0.101-0.86 0.034-1.335-0.2v0c-2.191-1.185-4.037-2.254-5.538-3.208v0c-3.181-2.018-4.875-3.453-5.081-4.302v0c-0.075-0.31 0.085-0.512 0.481-0.608v0c0.461-0.112 1.192-0.104 2.192 0.023 1.008 0.132 1.904 0.288 2.687 0.468v0l1.144 0.277c1.025 0.288 2.762 0.75 5.211 1.383 2.448 0.634 4.769 1.26 6.962 1.88 2.185 0.614 4.173 1.217 5.962 1.808v0l-0.63-2.598c-0.053-0.217-0.023-0.34 0.089-0.367 0.112-0.027 0.241 0.032 0.388 0.178 0.155 0.151 0.257 0.325 0.305 0.522v0c0.117 0.481 0.331 1.322 0.643 2.522v0c1.947 0.665 3.506 1.26 4.679 1.785v0c1.021 0.471 1.563 0.838 1.627 1.101v0c0.037 0.152-0.044 0.251-0.241 0.299v0c-0.461 0.112-1.546-0.065-3.256-0.528v0l-2.316-0.621 0.819 3.379c0.048 0.198 0.019 0.309-0.086 0.335v0c-0.356 0.086-0.61-0.187-0.764-0.819v0l-0.749-3.093c-10.817-2.734-16.488-4.177-17.013-4.329v0c-1.908-0.507-3.113-0.7-3.614-0.578v0c-0.158 0.038-0.224 0.11-0.198 0.216v0c0.075 0.31 0.992 1.029 2.751 2.157z" fill="#6b7280" data-fill-palette-color="primary"></path><path d="M3.762 140.414c0-1.787 1.449-3.236 3.236-3.235 1.787 0 3.236 1.449 3.236 3.235 0 1.787-1.449 3.236-3.236 3.236-1.787 0-3.236-1.449-3.236-3.236z" fill="#6b7280" data-fill-palette-color="primary"></path><path d="M259.97 140.414c0-1.787 1.449-3.236 3.236-3.235 1.787 0 3.236 1.449 3.235 3.235 0 1.787-1.449 3.236-3.235 3.236-1.787 0-3.236-1.449-3.236-3.236z" fill="#6b7280" data-fill-palette-color="primary"></path></g><g id="text-1"><path d="M36.943 194.153v0c-1.934-0.982-4.962-1.869-9.082-2.661-4.114-0.794-7.582-1.337-10.404-1.628-2.82-0.284-5.138-0.482-6.954-0.594v0c-2.566-0.135-3.946-0.452-4.139-0.952v0c-0.129-0.335 0.264-0.68 1.181-1.034v0c0.67-0.259 1.526-0.433 2.566-0.523 1.047-0.092 1.927-0.109 2.641-0.049v0l1.068 0.056c1.753 0.137 3.464-0.117 5.133-0.762v0c2.27-0.877 3.981-2.184 5.133-3.922v0c-5.037-0.38-9.957-1.023-14.76-1.929v0c-0.467-0.081-0.975-0.183-1.524-0.305-0.549-0.122-1.258-0.303-2.127-0.541-0.878-0.242-1.627-0.516-2.247-0.822-0.622-0.312-0.997-0.636-1.127-0.97v0c-0.073-0.19 0.004-0.328 0.232-0.417v0l0.299-0.072c0.822-0.223 3.956 0.074 9.401 0.892v0l12.805 1.889c0.192-0.99 0.098-1.974-0.28-2.955v0c-0.369-0.955-0.951-1.598-1.748-1.93-0.794-0.325-1.681-0.299-2.661 0.08v0c-0.417 0.161-0.796 0.366-1.136 0.613v0c-0.159 0.134-0.292 0.222-0.4 0.264v0c-0.19 0.073-0.313 0.037-0.369-0.109v0c-0.137-0.354 0.156-0.932 0.878-1.734 0.72-0.808 1.392-1.333 2.019-1.575v0c0.879-0.339 1.68-0.296 2.403 0.129 0.732 0.429 1.295 1.153 1.689 2.171v0c0.676 1.751 0.828 3.48 0.455 5.186v0l6.667 0.978c0.289 0.128 0.458 0.255 0.507 0.382v0c0.081 0.209-0.066 0.385-0.439 0.529v0c-1.106 0.427-3.623 0.524-7.55 0.289v0c-1.247 2.284-3.394 4.014-6.442 5.191v0c-0.194 0.119-0.279 0.209-0.254 0.273 0.024 0.063 0.131 0.095 0.32 0.094v0c2.76 0.373 5.22 0.658 7.381 0.855v0c2.907 0.265 5.405 0.826 7.495 1.683 2.096 0.855 3.429 2.022 4 3.501v0c0.122 0.316 0.12 0.499-0.006 0.548v0c-0.063 0.024-0.271-0.015-0.624-0.119z" fill="#6b7280" data-fill-palette-color="primary"></path><path d="M93.361 259.053v0c0.453-0.43 0.754-0.841 0.903-1.234v0c0.127-0.336 0.086-0.544-0.123-0.623v0c-0.127-0.048-0.284-0.064-0.471-0.048-0.185 0.01-0.334 0.04-0.448 0.091v0l-0.202 0.076c-0.867 0.317-2.067 1.036-3.602 2.158-1.537 1.128-2.384 1.902-2.542 2.32v0c-0.031 0.082-0.028 0.131 0.01 0.145v0c0.127 0.048 0.445 0.049 0.956 0.003 0.504-0.048 1.305-0.306 2.402-0.775 1.098-0.468 2.137-1.173 3.117-2.113zM89.234 265.698v0c1.49-0.603 3.718-1.693 6.687-3.272v0c0.087-0.039 0.15-0.052 0.188-0.038 0.044 0.017 0.051 0.066 0.02 0.149v0c-0.151 0.399-0.456 0.726-0.915 0.98v0c-2.197 1.132-4.109 2.045-5.736 2.741v0c-1.208 0.55-2.571 0.997-4.086 1.343-1.522 0.344-2.679 0.366-3.471 0.066v0c-0.963-0.365-1.19-1.219-0.681-2.563v0c0.838-2.212 2.538-4.221 5.099-6.026 2.559-1.799 5.078-2.718 7.557-2.758v0c1.044-0.039 1.931 0.079 2.66 0.356v0c0.818 0.31 1.104 0.788 0.859 1.434v0c-0.461 1.217-1.847 2.283-4.158 3.198-2.305 0.917-4.68 1.38-7.126 1.388v0c-0.09-0.012-0.19 0.033-0.301 0.135v0c-0.635 0.738-1.079 1.443-1.334 2.115v0c-0.286 0.754-0.147 1.238 0.417 1.452v0c0.9 0.341 2.34 0.108 4.321-0.7z" fill="#6b7280" data-fill-palette-color="primary"></path><path d="M197.355 258.247v0c0.146 1.159 0.001 2.27-0.435 3.333-0.428 1.066-0.916 1.888-1.464 2.468-0.539 0.582-1.077 1.011-1.613 1.286v0c-1.453 0.747-2.47 0.554-3.053-0.58v0c-0.595-1.157-0.497-2.53 0.295-4.118v0c0.374-0.741 0.871-1.359 1.493-1.854v0c0.102-0.053 0.174-0.04 0.214 0.039v0c0.022 0.042 0.021 0.092-0.003 0.15v0c-0.299 0.634-0.467 1.463-0.504 2.488-0.043 1.028 0.089 1.841 0.396 2.438 0.307 0.597 0.71 0.767 1.21 0.509v0c0.398-0.205 0.704-0.572 0.92-1.102 0.218-0.524 0.34-1.006 0.366-1.445v0l0.052-0.633c0.069-0.843-0.117-2.028-0.558-3.554-0.451-1.529-0.909-2.851-1.377-3.967v0l-0.741-1.666c-0.081-0.157-0.151-0.22-0.212-0.188v0l-0.094 0.128-1.172 4.97c-0.084 0.371-0.168 0.578-0.252 0.621v0c-0.096 0.05-0.18 0.005-0.252-0.134v0c-0.133-0.259-0.166-0.494-0.098-0.703v0l0.103-0.465c0.959-3.709 1.457-5.912 1.495-6.61v0c0.066-0.613 0.301-1.237 0.707-1.872v0c0.39-0.605 0.962-1.101 1.716-1.488v0c0.199-0.102 0.339-0.075 0.419 0.081v0c0.053 0.102 0.021 0.233-0.096 0.392v0c-0.051 0.049-0.103 0.133-0.156 0.252-0.056 0.113-0.132 0.358-0.228 0.735-0.096 0.377-0.144 0.779-0.146 1.206-0.007 0.431 0.076 0.986 0.251 1.666 0.171 0.674 0.446 1.379 0.823 2.115v0c1.178 2.291 1.842 4.125 1.994 5.502z" fill="#6b7280" data-fill-palette-color="primary"></path><path d="M261.874 174.963v0c-0.695-1.131-1.717-2.655-3.065-4.572v0c-0.05-0.082-0.07-0.143-0.06-0.182 0.011-0.046 0.06-0.059 0.145-0.038v0c0.415 0.101 0.778 0.359 1.088 0.776v0c1.395 2.04 2.539 3.824 3.431 5.352v0c1.89 3.22 2.732 5.255 2.526 6.105v0c-0.073 0.303-0.308 0.407-0.704 0.311v0c-0.455-0.11-1.094-0.45-1.918-1.02-0.832-0.565-1.556-1.106-2.169-1.625v0l-0.881-0.768c-0.768-0.716-2.089-1.912-3.963-3.587-1.869-1.667-3.628-3.272-5.276-4.816-1.65-1.537-3.133-2.971-4.449-4.301v0l-0.623 2.569c-0.053 0.217-0.132 0.313-0.237 0.287-0.112-0.027-0.2-0.139-0.264-0.336-0.07-0.198-0.082-0.396-0.034-0.594v0c0.117-0.481 0.31-1.32 0.579-2.516v0c-1.414-1.473-2.517-2.706-3.308-3.701v0c-0.687-0.878-0.998-1.449-0.934-1.712v0c0.037-0.151 0.154-0.203 0.352-0.155v0c0.455 0.11 1.333 0.759 2.635 1.947v0l1.744 1.605 0.815-3.359c0.048-0.198 0.128-0.283 0.24-0.256v0c0.343 0.083 0.437 0.441 0.284 1.073v0l-0.743 3.063c8.301 7.328 12.647 11.175 13.039 11.543v0c1.451 1.321 2.427 2.043 2.927 2.164v0c0.151 0.037 0.241-0.001 0.268-0.113v0c0.073-0.303-0.408-1.351-1.445-3.144z" fill="#6b7280" data-fill-palette-color="primary"></path></g></svg></g></svg></g></svg></g></svg></g><defs></defs></svg><rect width="280" height="280" fill="none" stroke="none" visibility="hidden"></rect></g></svg></g></svg>